<svg width="24" height="24" viewBox="0 0 24 24" xmlns="http://www.w3.org/2000/svg">
<path fill-rule="evenodd" clip-rule="evenodd" d="M12.0622 2.51001C12.2561 2.85405 12.2298 3.2799 11.9951 3.59747C11.1392 4.75534 10.7274 6.18193 10.8344 7.61779C10.9415 9.05364 11.5604 10.4034 12.5785 11.4215C13.5966 12.4396 14.9464 13.0585 16.3822 13.1656C17.8181 13.2726 19.2447 12.8608 20.4025 12.0049C20.7201 11.7702 21.1459 11.7439 21.49 11.9378C21.834 12.1317 22.0321 12.5096 21.9957 12.9028C21.8206 14.7978 21.1094 16.6037 19.9454 18.1092C18.7814 19.6147 17.2127 20.7576 15.4229 21.4041C13.633 22.0506 11.6961 22.174 9.83864 21.7598C7.98123 21.3457 6.28018 20.4111 4.93453 19.0655C3.58889 17.7198 2.65431 16.0188 2.24015 14.1614C1.82599 12.3039 1.94938 10.367 2.59589 8.57714C3.24239 6.78729 4.38527 5.21859 5.89079 4.05457C7.39631 2.89056 9.2022 2.17939 11.0972 2.00427C11.4904 1.96793 11.8683 2.16598 12.0622 2.51001ZM9.29212 4.44374C8.51302 4.72563 7.77844 5.12801 7.11646 5.63983C5.91204 6.57104 4.99774 7.82601 4.48053 9.25789C3.96333 10.6898 3.86462 12.2393 4.19594 13.7253C4.52727 15.2112 5.27494 16.572 6.35145 17.6485C7.42797 18.7251 8.78881 19.4727 10.2747 19.8041C11.7607 20.1354 13.3102 20.0367 14.7421 19.5195C16.174 19.0023 17.429 18.088 18.3602 16.8835C18.872 16.2216 19.2744 15.487 19.5563 14.7079C18.5011 15.0896 17.3693 15.2486 16.2332 15.1638C14.3187 15.0211 12.5191 14.1959 11.1616 12.8384C9.8041 11.4809 8.97893 9.68127 8.83616 7.7668C8.75144 6.63067 8.91038 5.49888 9.29212 4.44374Z"/>
</svg>
