<svg width="24" height="24" viewBox="0 0 24 24" fill="none" xmlns="http://www.w3.org/2000/svg">
<path fill-rule="evenodd" clip-rule="evenodd" d="M12 8.95654C10.3191 8.95654 8.95654 10.3191 8.95654 12C8.95654 13.6809 10.3191 15.0435 12 15.0435C13.6809 15.0435 15.0435 13.6809 15.0435 12C15.0435 10.3191 13.6809 8.95654 12 8.95654ZM7.21741 12C7.21741 9.35865 9.35865 7.21741 12 7.21741C14.6414 7.21741 16.7826 9.35865 16.7826 12C16.7826 14.6414 14.6414 16.7826 12 16.7826C9.35865 16.7826 7.21741 14.6414 7.21741 12Z" fill="#1A2E35"/>
<path fill-rule="evenodd" clip-rule="evenodd" d="M12.0001 2C12.4803 2 12.8696 2.38932 12.8696 2.86957V4.17391C12.8696 4.65416 12.4803 5.04348 12.0001 5.04348C11.5198 5.04348 11.1305 4.65416 11.1305 4.17391V2.86957C11.1305 2.38932 11.5198 2 12.0001 2Z" fill="#1A2E35"/>
<path fill-rule="evenodd" clip-rule="evenodd" d="M12.0001 18.9565C12.4803 18.9565 12.8696 19.3459 12.8696 19.8261V21.1305C12.8696 21.6107 12.4803 22 12.0001 22C11.5198 22 11.1305 21.6107 11.1305 21.1305V19.8261C11.1305 19.3459 11.5198 18.9565 12.0001 18.9565Z" fill="#1A2E35"/>
<path fill-rule="evenodd" clip-rule="evenodd" d="M4.86333 4.86339C5.20292 4.52381 5.7535 4.52381 6.09308 4.86339L7.39743 6.16774C7.73702 6.50733 7.73702 7.05791 7.39743 7.39749C7.05784 7.73708 6.50727 7.73708 6.16768 7.39749L4.86333 6.09314C4.52375 5.75356 4.52375 5.20298 4.86333 4.86339Z" fill="#1A2E35"/>
<path fill-rule="evenodd" clip-rule="evenodd" d="M16.6025 16.6025C16.9421 16.2629 17.4926 16.2629 17.8322 16.6025L19.1366 17.9069C19.4762 18.2465 19.4762 18.797 19.1366 19.1366C18.797 19.4762 18.2464 19.4762 17.9068 19.1366L16.6025 17.8323C16.2629 17.4927 16.2629 16.9421 16.6025 16.6025Z" fill="#1A2E35"/>
<path fill-rule="evenodd" clip-rule="evenodd" d="M2 12C2 11.5197 2.38932 11.1304 2.86957 11.1304H4.17391C4.65416 11.1304 5.04348 11.5197 5.04348 12C5.04348 12.4802 4.65416 12.8696 4.17391 12.8696H2.86957C2.38932 12.8696 2 12.4802 2 12Z" fill="#1A2E35"/>
<path fill-rule="evenodd" clip-rule="evenodd" d="M18.9565 12C18.9565 11.5197 19.3459 11.1304 19.8261 11.1304H21.1305C21.6107 11.1304 22 11.5197 22 12C22 12.4802 21.6107 12.8696 21.1305 12.8696H19.8261C19.3459 12.8696 18.9565 12.4802 18.9565 12Z" fill="#1A2E35"/>
<path fill-rule="evenodd" clip-rule="evenodd" d="M7.39743 16.6025C7.73702 16.9421 7.73702 17.4927 7.39743 17.8323L6.09308 19.1366C5.7535 19.4762 5.20292 19.4762 4.86333 19.1366C4.52375 18.797 4.52375 18.2465 4.86333 17.9069L6.16768 16.6025C6.50727 16.2629 7.05784 16.2629 7.39743 16.6025Z" fill="#1A2E35"/>
<path fill-rule="evenodd" clip-rule="evenodd" d="M19.1366 4.86339C19.4762 5.20298 19.4762 5.75356 19.1366 6.09314L17.8322 7.39749C17.4926 7.73708 16.9421 7.73708 16.6025 7.39749C16.2629 7.05791 16.2629 6.50733 16.6025 6.16774L17.9068 4.86339C18.2464 4.52381 18.797 4.52381 19.1366 4.86339Z" fill="#1A2E35"/>
</svg>
